<svg xmlns="http://www.w3.org/2000/svg" viewBox="0 0 834 148" width="834" height="148">
  <rect x="46" y="21" width="38" height="22" fill="white"/>
  <rect x="103" y="21" width="38" height="22" fill="white"/>
  <rect x="179" y="21" width="38" height="22" fill="white"/>
  <rect x="255" y="21" width="19" height="22" fill="white"/>
  <rect x="293" y="21" width="19" height="22" fill="white"/>
  <rect x="331" y="21" width="57" height="22" fill="white"/>
  <rect x="407" y="21" width="38" height="22" fill="white"/>
  <rect x="521" y="21" width="57" height="22" fill="white"/>
  <rect x="597" y="21" width="19" height="22" fill="white"/>
  <rect x="635" y="21" width="19" height="22" fill="white"/>
  <rect x="673" y="21" width="38" height="22" fill="white"/>
  <rect x="749" y="21" width="57" height="22" fill="white"/>
  <rect x="27" y="43" width="19" height="21" fill="white"/>
  <rect x="103" y="43" width="19" height="21" fill="white"/>
  <rect x="141" y="43" width="19" height="21" fill="white"/>
  <rect x="179" y="43" width="19" height="21" fill="white"/>
  <rect x="217" y="43" width="19" height="21" fill="white"/>
  <rect x="255" y="43" width="57" height="21" fill="white"/>
  <rect x="331" y="43" width="19" height="21" fill="white"/>
  <rect x="407" y="43" width="19" height="21" fill="white"/>
  <rect x="445" y="43" width="19" height="21" fill="white"/>
  <rect x="540" y="43" width="19" height="21" fill="white"/>
  <rect x="616" y="43" width="19" height="21" fill="white"/>
  <rect x="673" y="43" width="19" height="21" fill="white"/>
  <rect x="711" y="43" width="19" height="21" fill="white"/>
  <rect x="749" y="43" width="19" height="21" fill="white"/>
  <rect x="27" y="64" width="19" height="22" fill="white"/>
  <rect x="65" y="64" width="19" height="22" fill="white"/>
  <rect x="103" y="64" width="19" height="22" fill="white"/>
  <rect x="141" y="64" width="19" height="22" fill="white"/>
  <rect x="179" y="64" width="57" height="22" fill="white"/>
  <rect x="255" y="64" width="19" height="22" fill="white"/>
  <rect x="293" y="64" width="19" height="22" fill="white"/>
  <rect x="331" y="64" width="38" height="22" fill="white"/>
  <rect x="407" y="64" width="38" height="22" fill="white"/>
  <rect x="540" y="64" width="19" height="22" fill="white"/>
  <rect x="616" y="64" width="19" height="22" fill="white"/>
  <rect x="673" y="64" width="57" height="22" fill="white"/>
  <rect x="749" y="64" width="38" height="22" fill="white"/>
  <rect x="27" y="86" width="57" height="21" fill="white"/>
  <rect x="103" y="86" width="57" height="21" fill="white"/>
  <rect x="179" y="86" width="19" height="21" fill="white"/>
  <rect x="255" y="86" width="19" height="21" fill="white"/>
  <rect x="293" y="86" width="19" height="21" fill="white"/>
  <rect x="331" y="86" width="57" height="21" fill="white"/>
  <rect x="407" y="86" width="19" height="21" fill="white"/>
  <rect x="445" y="86" width="19" height="21" fill="white"/>
  <rect x="540" y="86" width="19" height="21" fill="white"/>
  <rect x="616" y="86" width="19" height="21" fill="white"/>
  <rect x="673" y="86" width="19" height="21" fill="white"/>
  <rect x="749" y="86" width="57" height="21" fill="white"/>
  <!-- Blue underline -->
  <rect x="27" y="126" width="779" height="5" fill="rgb(33,77,122)"/>
</svg>
